G04 #@! TF.GenerationSoftware,KiCad,Pcbnew,9.0.1*
G04 #@! TF.CreationDate,2025-08-12T12:10:01+02:00*
G04 #@! TF.ProjectId,Flex debug cable,466c6578-2064-4656-9275-67206361626c,1.1.0*
G04 #@! TF.SameCoordinates,Original*
G04 #@! TF.FileFunction,Copper,L1,Top*
G04 #@! TF.FilePolarity,Positive*
%FSLAX46Y46*%
G04 Gerber Fmt 4.6, Leading zero omitted, Abs format (unit mm)*
G04 Created by KiCad (PCBNEW 9.0.1) date 2025-08-12 12:10:01*
%MOMM*%
%LPD*%
G01*
G04 APERTURE LIST*
G04 #@! TA.AperFunction,ConnectorPad*
%ADD10R,3.000000X0.300000*%
G04 #@! TD*
G04 #@! TA.AperFunction,ViaPad*
%ADD11C,0.400000*%
G04 #@! TD*
G04 #@! TA.AperFunction,Conductor*
%ADD12C,0.150000*%
G04 #@! TD*
G04 #@! TA.AperFunction,Conductor*
%ADD13C,0.200000*%
G04 #@! TD*
G04 APERTURE END LIST*
D10*
G04 #@! TO.P,J2,1,Pin_1*
G04 #@! TO.N,V_TARGET*
X-48490000Y2250000D03*
G04 #@! TO.P,J2,2,Pin_2*
G04 #@! TO.N,GND*
X-48490000Y1750000D03*
G04 #@! TO.P,J2,3,Pin_3*
G04 #@! TO.N,V_SOLAR*
X-48490000Y1250000D03*
G04 #@! TO.P,J2,4,Pin_4*
G04 #@! TO.N,GND*
X-48490000Y750000D03*
G04 #@! TO.P,J2,5,Pin_5*
G04 #@! TO.N,/TG_TX*
X-48490000Y250000D03*
G04 #@! TO.P,J2,6,Pin_6*
G04 #@! TO.N,/TG_RX*
X-48490000Y-250000D03*
G04 #@! TO.P,J2,7,Pin_7*
G04 #@! TO.N,/SWDIO*
X-48490000Y-750000D03*
G04 #@! TO.P,J2,8,Pin_8*
G04 #@! TO.N,/SWDCLK*
X-48490000Y-1250000D03*
G04 #@! TO.P,J2,9,Pin_9*
G04 #@! TO.N,/SWO*
X-48490000Y-1750000D03*
G04 #@! TO.P,J2,10,Pin_10*
G04 #@! TO.N,/RST*
X-48490000Y-2250000D03*
G04 #@! TD*
D11*
G04 #@! TO.N,V_TARGET*
X47600000Y2250000D03*
G04 #@! TO.N,/RST*
X46870000Y-1250000D03*
G04 #@! TO.N,/SWO*
X46440000Y-750000D03*
G04 #@! TO.N,/SWDCLK*
X45940000Y-1250000D03*
G04 #@! TO.N,/SWDIO*
X45440000Y-750000D03*
G04 #@! TO.N,GND*
X44860000Y750000D03*
G04 #@! TO.N,V_SOLAR*
X49580000Y520000D03*
G04 #@! TO.N,/TG_RX*
X49630000Y-910000D03*
G04 #@! TO.N,/TG_TX*
X49560000Y-175000D03*
G04 #@! TO.N,GND*
X-46610000Y750000D03*
X-46610000Y1750000D03*
G04 #@! TD*
D12*
G04 #@! TO.N,/SWDCLK*
X45940000Y-1250000D02*
X-48490000Y-1250000D01*
G04 #@! TO.N,/SWDIO*
X-48490000Y-750000D02*
X45440000Y-750000D01*
D13*
G04 #@! TO.N,V_TARGET*
X46668335Y2250000D02*
X47600000Y2250000D01*
G04 #@! TO.N,V_SOLAR*
X47817624Y1250000D02*
G75*
G02*
X49580002Y520002I6J-2492371D01*
G01*
X-48490000Y1250000D02*
X47817624Y1250000D01*
D12*
G04 #@! TO.N,/TG_TX*
X49560000Y-175000D02*
G75*
G03*
X48533959Y250012I-1026070J-1026071D01*
G01*
G04 #@! TO.N,/TG_RX*
X49630000Y-910000D02*
G75*
G03*
X48036619Y-250005I-1593370J-1593371D01*
G01*
X48036619Y-250000D02*
X-48490000Y-250000D01*
G04 #@! TO.N,/TG_TX*
X48533959Y250000D02*
X-48490000Y250000D01*
G04 #@! TO.N,/RST*
X46870000Y-1900000D02*
G75*
G02*
X46520000Y-2249941I-349970J29D01*
G01*
X46870000Y-1250000D02*
X46870000Y-1900000D01*
X46520000Y-2250000D02*
X-48490000Y-2250000D01*
G04 #@! TO.N,/SWO*
X-48490000Y-1750000D02*
X46110000Y-1750000D01*
X46440000Y-750000D02*
X46440000Y-1420000D01*
X46440000Y-1420000D02*
G75*
G02*
X46110000Y-1749941I-329970J29D01*
G01*
D13*
G04 #@! TO.N,GND*
X44860000Y750000D02*
X-46610000Y750000D01*
G04 #@! TO.N,V_TARGET*
X36153776Y2250000D02*
X46070000Y2250000D01*
X46668335Y2250000D02*
X46070000Y2250000D01*
X-48490000Y2250000D02*
X-46550000Y2250000D01*
X-46550000Y2250000D02*
X36153776Y2250000D01*
G04 #@! TO.N,GND*
X-46650000Y1750000D02*
X-48490000Y1750000D01*
X-48490000Y750000D02*
X-46610000Y750000D01*
G04 #@! TD*
G04 #@! TA.AperFunction,Conductor*
G04 #@! TO.N,/SWDCLK*
G36*
X-46992077Y-1103651D02*
G01*
X-46987994Y-1110512D01*
X-46985276Y-1124751D01*
X-46985273Y-1124758D01*
X-46972461Y-1143356D01*
X-46972460Y-1143357D01*
X-46972458Y-1143359D01*
X-46930722Y-1165625D01*
X-46850497Y-1173915D01*
X-46842620Y-1178174D01*
X-46840000Y-1185553D01*
X-46840000Y-1314334D01*
X-46843427Y-1322607D01*
X-46850619Y-1325984D01*
X-46925382Y-1332918D01*
X-46972668Y-1356846D01*
X-46972669Y-1356847D01*
X-46985334Y-1375384D01*
X-46988005Y-1389472D01*
X-46992913Y-1396961D01*
X-47000663Y-1398934D01*
X-48195982Y-1279482D01*
X-48374504Y-1261641D01*
X-48382395Y-1257409D01*
X-48384982Y-1248837D01*
X-48380749Y-1240945D01*
X-48374504Y-1238358D01*
X-47000649Y-1101064D01*
X-46992077Y-1103651D01*
G37*
G04 #@! TD.AperFunction*
G04 #@! TD*
G04 #@! TA.AperFunction,Conductor*
G04 #@! TO.N,/SWDCLK*
G36*
X45897380Y-1058662D02*
G01*
X45903255Y-1065420D01*
X45903623Y-1066793D01*
X45940522Y-1247661D01*
X45940522Y-1252339D01*
X45903562Y-1433509D01*
X45898550Y-1440930D01*
X45889759Y-1442634D01*
X45888647Y-1442349D01*
X45803421Y-1416038D01*
X45801243Y-1415116D01*
X45736861Y-1379780D01*
X45663307Y-1342070D01*
X45663304Y-1342069D01*
X45645233Y-1337660D01*
X45612337Y-1329634D01*
X45612333Y-1329633D01*
X45554753Y-1325738D01*
X45546730Y-1321761D01*
X45543843Y-1314065D01*
X45543843Y-1185950D01*
X45547270Y-1177677D01*
X45554769Y-1174276D01*
X45611174Y-1170541D01*
X45661540Y-1158542D01*
X45736872Y-1120213D01*
X45783516Y-1093383D01*
X45785626Y-1092434D01*
X45888448Y-1058036D01*
X45897380Y-1058662D01*
G37*
G04 #@! TD.AperFunction*
G04 #@! TD*
G04 #@! TA.AperFunction,Conductor*
G04 #@! TO.N,/SWDIO*
G36*
X-46992077Y-603651D02*
G01*
X-46987994Y-610512D01*
X-46985276Y-624751D01*
X-46985273Y-624758D01*
X-46972461Y-643356D01*
X-46972460Y-643357D01*
X-46972458Y-643359D01*
X-46930722Y-665625D01*
X-46850497Y-673915D01*
X-46842620Y-678174D01*
X-46840000Y-685553D01*
X-46840000Y-814334D01*
X-46843427Y-822607D01*
X-46850619Y-825984D01*
X-46925382Y-832918D01*
X-46972668Y-856846D01*
X-46972669Y-856847D01*
X-46985334Y-875384D01*
X-46988005Y-889472D01*
X-46992913Y-896961D01*
X-47000663Y-898934D01*
X-48195982Y-779482D01*
X-48374504Y-761641D01*
X-48382395Y-757409D01*
X-48384982Y-748837D01*
X-48380749Y-740945D01*
X-48374504Y-738358D01*
X-47000649Y-601064D01*
X-46992077Y-603651D01*
G37*
G04 #@! TD.AperFunction*
G04 #@! TD*
G04 #@! TA.AperFunction,Conductor*
G04 #@! TO.N,/SWDIO*
G36*
X45397380Y-558662D02*
G01*
X45403255Y-565420D01*
X45403623Y-566793D01*
X45440522Y-747661D01*
X45440522Y-752339D01*
X45403562Y-933509D01*
X45398550Y-940930D01*
X45389759Y-942634D01*
X45388647Y-942349D01*
X45303421Y-916038D01*
X45301243Y-915116D01*
X45236861Y-879780D01*
X45163307Y-842070D01*
X45163304Y-842069D01*
X45145233Y-837660D01*
X45112337Y-829634D01*
X45112333Y-829633D01*
X45054753Y-825738D01*
X45046730Y-821761D01*
X45043843Y-814065D01*
X45043843Y-685950D01*
X45047270Y-677677D01*
X45054769Y-674276D01*
X45111174Y-670541D01*
X45161540Y-658542D01*
X45236872Y-620213D01*
X45283516Y-593383D01*
X45285626Y-592434D01*
X45388448Y-558036D01*
X45397380Y-558662D01*
G37*
G04 #@! TD.AperFunction*
G04 #@! TD*
G04 #@! TA.AperFunction,Conductor*
G04 #@! TO.N,V_TARGET*
G36*
X47557557Y2441510D02*
G01*
X47563277Y2434620D01*
X47563564Y2433500D01*
X47600522Y2252339D01*
X47600522Y2247661D01*
X47563477Y2066077D01*
X47558465Y2058656D01*
X47549674Y2056952D01*
X47548935Y2057128D01*
X47467672Y2079285D01*
X47466179Y2079803D01*
X47402584Y2106796D01*
X47338256Y2133108D01*
X47281871Y2145388D01*
X47214852Y2149350D01*
X47206796Y2153260D01*
X47203843Y2161030D01*
X47203843Y2339479D01*
X47207270Y2347752D01*
X47214305Y2351113D01*
X47219977Y2351717D01*
X47323848Y2362767D01*
X47402595Y2393209D01*
X47428776Y2405140D01*
X47430157Y2405665D01*
X47548642Y2442338D01*
X47557557Y2441510D01*
G37*
G04 #@! TD.AperFunction*
G04 #@! TD*
G04 #@! TA.AperFunction,Conductor*
G04 #@! TO.N,V_SOLAR*
G36*
X49400377Y809250D02*
G01*
X49476309Y764348D01*
X49543489Y746259D01*
X49588238Y735951D01*
X49589718Y735504D01*
X49634175Y718735D01*
X49635845Y717949D01*
X49666577Y700347D01*
X49680290Y692493D01*
X49685766Y685407D01*
X49684628Y676525D01*
X49684235Y675888D01*
X49582108Y521383D01*
X49578802Y518076D01*
X49424330Y415913D01*
X49415539Y414208D01*
X49408117Y419218D01*
X49407605Y420068D01*
X49378779Y472899D01*
X49377999Y474661D01*
X49360421Y525217D01*
X49352731Y545270D01*
X49339077Y580883D01*
X49313593Y616307D01*
X49277733Y648619D01*
X49273881Y656703D01*
X49276282Y664431D01*
X49385142Y806302D01*
X49392896Y810778D01*
X49400377Y809250D01*
G37*
G04 #@! TD.AperFunction*
G04 #@! TD*
G04 #@! TA.AperFunction,Conductor*
G04 #@! TO.N,V_SOLAR*
G36*
X-46990503Y1396507D02*
G01*
X-46986906Y1391422D01*
X-46977453Y1365217D01*
X-46946213Y1349431D01*
X-46938197Y1349328D01*
X-46866057Y1348394D01*
X-46866056Y1348395D01*
X-46866048Y1348394D01*
X-46852419Y1349235D01*
X-46843952Y1346324D01*
X-46840022Y1338277D01*
X-46840000Y1337557D01*
X-46840000Y1162444D01*
X-46843427Y1154171D01*
X-46851700Y1150744D01*
X-46852420Y1150766D01*
X-46866040Y1151606D01*
X-46910949Y1152844D01*
X-46927786Y1153308D01*
X-46927787Y1153308D01*
X-46927789Y1153308D01*
X-46972690Y1139023D01*
X-46985337Y1123342D01*
X-46987922Y1110405D01*
X-46992904Y1102964D01*
X-47000558Y1101056D01*
X-48287209Y1229635D01*
X-48374504Y1238359D01*
X-48382395Y1242591D01*
X-48384982Y1251163D01*
X-48380749Y1259055D01*
X-48374504Y1261642D01*
X-46999073Y1399094D01*
X-46990503Y1396507D01*
G37*
G04 #@! TD.AperFunction*
G04 #@! TD*
G04 #@! TA.AperFunction,Conductor*
G04 #@! TO.N,/TG_TX*
G36*
X49288549Y125301D02*
G01*
X49428511Y60656D01*
X49581366Y24663D01*
X49585410Y23860D01*
X49587593Y23426D01*
X49595040Y18453D01*
X49596800Y9723D01*
X49561825Y-170633D01*
X49556886Y-178103D01*
X49556797Y-178162D01*
X49404385Y-279044D01*
X49395595Y-280753D01*
X49388171Y-275746D01*
X49387628Y-274840D01*
X49354407Y-213216D01*
X49353653Y-211498D01*
X49333022Y-151805D01*
X49332934Y-151537D01*
X49327207Y-133087D01*
X49294509Y-66843D01*
X49294508Y-66842D01*
X49294507Y-66840D01*
X49261638Y-35163D01*
X49261637Y-35162D01*
X49244786Y-24825D01*
X49219446Y-9281D01*
X49214186Y-2034D01*
X49215139Y6004D01*
X49221483Y18453D01*
X49273219Y119991D01*
X49280029Y125805D01*
X49288549Y125301D01*
G37*
G04 #@! TD.AperFunction*
G04 #@! TD*
G04 #@! TA.AperFunction,Conductor*
G04 #@! TO.N,/TG_RX*
G36*
X49458837Y-660871D02*
G01*
X49521302Y-696393D01*
X49581220Y-704241D01*
X49656381Y-712461D01*
X49664232Y-716766D01*
X49666739Y-725363D01*
X49666593Y-726322D01*
X49631729Y-905788D01*
X49626788Y-913256D01*
X49626698Y-913316D01*
X49475041Y-1013616D01*
X49466250Y-1015321D01*
X49458828Y-1010311D01*
X49457977Y-1008789D01*
X49433307Y-955712D01*
X49432351Y-952541D01*
X49424211Y-898860D01*
X49411911Y-837413D01*
X49392990Y-807043D01*
X49392989Y-807042D01*
X49392987Y-807039D01*
X49366390Y-782085D01*
X49362701Y-773926D01*
X49365112Y-766432D01*
X49443774Y-663918D01*
X49451527Y-659443D01*
X49458837Y-660871D01*
G37*
G04 #@! TD.AperFunction*
G04 #@! TD*
G04 #@! TA.AperFunction,Conductor*
G04 #@! TO.N,/TG_RX*
G36*
X-46992077Y-103651D02*
G01*
X-46987994Y-110512D01*
X-46985276Y-124751D01*
X-46985273Y-124758D01*
X-46972461Y-143356D01*
X-46972460Y-143357D01*
X-46972458Y-143359D01*
X-46930722Y-165625D01*
X-46850497Y-173915D01*
X-46842620Y-178174D01*
X-46840000Y-185553D01*
X-46840000Y-314334D01*
X-46843427Y-322607D01*
X-46850619Y-325984D01*
X-46925382Y-332918D01*
X-46972668Y-356846D01*
X-46972669Y-356847D01*
X-46985334Y-375384D01*
X-46988005Y-389472D01*
X-46992913Y-396961D01*
X-47000663Y-398934D01*
X-48195982Y-279482D01*
X-48374504Y-261641D01*
X-48382395Y-257409D01*
X-48384982Y-248837D01*
X-48380749Y-240945D01*
X-48374504Y-238358D01*
X-47000649Y-101064D01*
X-46992077Y-103651D01*
G37*
G04 #@! TD.AperFunction*
G04 #@! TD*
G04 #@! TA.AperFunction,Conductor*
G04 #@! TO.N,/TG_TX*
G36*
X-46992077Y396349D02*
G01*
X-46987994Y389488D01*
X-46985276Y375249D01*
X-46985273Y375242D01*
X-46972461Y356644D01*
X-46972460Y356643D01*
X-46972458Y356641D01*
X-46930722Y334375D01*
X-46850497Y326085D01*
X-46842620Y321826D01*
X-46840000Y314447D01*
X-46840000Y185666D01*
X-46843427Y177393D01*
X-46850619Y174016D01*
X-46925382Y167082D01*
X-46972668Y143154D01*
X-46972669Y143153D01*
X-46985334Y124616D01*
X-46988005Y110528D01*
X-46992913Y103039D01*
X-47000663Y101066D01*
X-48195982Y220518D01*
X-48374504Y238359D01*
X-48382395Y242591D01*
X-48384982Y251163D01*
X-48380749Y259055D01*
X-48374504Y261642D01*
X-47000649Y398936D01*
X-46992077Y396349D01*
G37*
G04 #@! TD.AperFunction*
G04 #@! TD*
G04 #@! TA.AperFunction,Conductor*
G04 #@! TO.N,/RST*
G36*
X47053510Y-1286437D02*
G01*
X47060930Y-1291449D01*
X47062634Y-1300240D01*
X47062349Y-1301352D01*
X47036038Y-1386577D01*
X47035116Y-1388755D01*
X46999781Y-1453137D01*
X46962070Y-1526692D01*
X46949634Y-1577662D01*
X46949633Y-1577666D01*
X46945738Y-1635247D01*
X46941761Y-1643270D01*
X46934065Y-1646157D01*
X46805950Y-1646157D01*
X46797677Y-1642730D01*
X46794276Y-1635230D01*
X46790540Y-1578832D01*
X46790540Y-1578826D01*
X46778542Y-1528460D01*
X46740213Y-1453127D01*
X46713385Y-1406486D01*
X46712432Y-1404367D01*
X46706480Y-1386577D01*
X46678036Y-1301551D01*
X46678662Y-1292619D01*
X46685420Y-1286744D01*
X46686793Y-1286376D01*
X46867662Y-1249477D01*
X46872338Y-1249477D01*
X47053510Y-1286437D01*
G37*
G04 #@! TD.AperFunction*
G04 #@! TD*
G04 #@! TA.AperFunction,Conductor*
G04 #@! TO.N,/RST*
G36*
X-46992077Y-2103651D02*
G01*
X-46987994Y-2110512D01*
X-46985276Y-2124751D01*
X-46985273Y-2124758D01*
X-46972461Y-2143356D01*
X-46972460Y-2143357D01*
X-46972458Y-2143359D01*
X-46930722Y-2165625D01*
X-46850497Y-2173915D01*
X-46842620Y-2178174D01*
X-46840000Y-2185553D01*
X-46840000Y-2314334D01*
X-46843427Y-2322607D01*
X-46850619Y-2325984D01*
X-46925382Y-2332918D01*
X-46972668Y-2356846D01*
X-46972669Y-2356847D01*
X-46985334Y-2375384D01*
X-46988005Y-2389472D01*
X-46992913Y-2396961D01*
X-47000663Y-2398934D01*
X-48195982Y-2279482D01*
X-48374504Y-2261641D01*
X-48382395Y-2257409D01*
X-48384982Y-2248837D01*
X-48380749Y-2240945D01*
X-48374504Y-2238358D01*
X-47000649Y-2101064D01*
X-46992077Y-2103651D01*
G37*
G04 #@! TD.AperFunction*
G04 #@! TD*
G04 #@! TA.AperFunction,Conductor*
G04 #@! TO.N,/SWO*
G36*
X-46992077Y-1603651D02*
G01*
X-46987994Y-1610512D01*
X-46985276Y-1624751D01*
X-46985273Y-1624758D01*
X-46972461Y-1643356D01*
X-46972460Y-1643357D01*
X-46972458Y-1643359D01*
X-46930722Y-1665625D01*
X-46850497Y-1673915D01*
X-46842620Y-1678174D01*
X-46840000Y-1685553D01*
X-46840000Y-1814334D01*
X-46843427Y-1822607D01*
X-46850619Y-1825984D01*
X-46925382Y-1832918D01*
X-46972668Y-1856846D01*
X-46972669Y-1856847D01*
X-46985334Y-1875384D01*
X-46988005Y-1889472D01*
X-46992913Y-1896961D01*
X-47000663Y-1898934D01*
X-48195982Y-1779482D01*
X-48374504Y-1761641D01*
X-48382395Y-1757409D01*
X-48384982Y-1748837D01*
X-48380749Y-1740945D01*
X-48374504Y-1738358D01*
X-47000649Y-1601064D01*
X-46992077Y-1603651D01*
G37*
G04 #@! TD.AperFunction*
G04 #@! TD*
G04 #@! TA.AperFunction,Conductor*
G04 #@! TO.N,/SWO*
G36*
X46623510Y-786437D02*
G01*
X46630930Y-791449D01*
X46632634Y-800240D01*
X46632349Y-801352D01*
X46606038Y-886577D01*
X46605116Y-888755D01*
X46569781Y-953137D01*
X46532070Y-1026692D01*
X46519634Y-1077662D01*
X46519633Y-1077666D01*
X46515738Y-1135247D01*
X46511761Y-1143270D01*
X46504065Y-1146157D01*
X46375950Y-1146157D01*
X46367677Y-1142730D01*
X46364276Y-1135230D01*
X46360540Y-1078832D01*
X46360540Y-1078826D01*
X46348542Y-1028460D01*
X46310213Y-953127D01*
X46283385Y-906486D01*
X46282432Y-904367D01*
X46276480Y-886577D01*
X46248036Y-801551D01*
X46248662Y-792619D01*
X46255420Y-786744D01*
X46256793Y-786376D01*
X46437662Y-749477D01*
X46442338Y-749477D01*
X46623510Y-786437D01*
G37*
G04 #@! TD.AperFunction*
G04 #@! TD*
G04 #@! TA.AperFunction,Conductor*
G04 #@! TO.N,GND*
G36*
X44817557Y941510D02*
G01*
X44823277Y934620D01*
X44823564Y933500D01*
X44860522Y752339D01*
X44860522Y747661D01*
X44823477Y566077D01*
X44818465Y558656D01*
X44809674Y556952D01*
X44808935Y557128D01*
X44727672Y579285D01*
X44726179Y579803D01*
X44662584Y606796D01*
X44598256Y633108D01*
X44541871Y645388D01*
X44474852Y649350D01*
X44466796Y653260D01*
X44463843Y661030D01*
X44463843Y839479D01*
X44467270Y847752D01*
X44474305Y851113D01*
X44479977Y851717D01*
X44583848Y862767D01*
X44662595Y893209D01*
X44688776Y905140D01*
X44690157Y905665D01*
X44808642Y942338D01*
X44817557Y941510D01*
G37*
G04 #@! TD.AperFunction*
G04 #@! TD*
G04 #@! TA.AperFunction,Conductor*
G04 #@! TO.N,GND*
G36*
X-46558948Y942876D02*
G01*
X-46484272Y922516D01*
X-46477674Y920716D01*
X-46476181Y920198D01*
X-46412613Y893217D01*
X-46348255Y866892D01*
X-46332557Y863474D01*
X-46291870Y854612D01*
X-46224853Y850651D01*
X-46216796Y846742D01*
X-46213843Y838971D01*
X-46213843Y660522D01*
X-46217270Y652249D01*
X-46224305Y648888D01*
X-46333849Y637234D01*
X-46412592Y606793D01*
X-46412605Y606787D01*
X-46438769Y594866D01*
X-46440160Y594336D01*
X-46558641Y557663D01*
X-46567558Y558491D01*
X-46573278Y565380D01*
X-46573562Y566489D01*
X-46610523Y747662D01*
X-46610523Y752339D01*
X-46581784Y893210D01*
X-46573478Y933925D01*
X-46568466Y941345D01*
X-46559675Y943049D01*
X-46558948Y942876D01*
G37*
G04 #@! TD.AperFunction*
G04 #@! TD*
G04 #@! TA.AperFunction,Conductor*
G04 #@! TO.N,V_TARGET*
G36*
X-46990503Y2396507D02*
G01*
X-46986906Y2391422D01*
X-46977453Y2365217D01*
X-46946213Y2349431D01*
X-46938197Y2349328D01*
X-46866057Y2348394D01*
X-46866056Y2348395D01*
X-46866048Y2348394D01*
X-46852419Y2349235D01*
X-46843952Y2346324D01*
X-46840022Y2338277D01*
X-46840000Y2337557D01*
X-46840000Y2162444D01*
X-46843427Y2154171D01*
X-46851700Y2150744D01*
X-46852420Y2150766D01*
X-46866040Y2151606D01*
X-46910949Y2152844D01*
X-46927786Y2153308D01*
X-46927787Y2153308D01*
X-46927789Y2153308D01*
X-46972690Y2139023D01*
X-46985337Y2123342D01*
X-46987922Y2110405D01*
X-46992904Y2102964D01*
X-47000558Y2101056D01*
X-48287209Y2229635D01*
X-48374504Y2238359D01*
X-48382395Y2242591D01*
X-48384982Y2251163D01*
X-48380749Y2259055D01*
X-48374504Y2261642D01*
X-46999073Y2399094D01*
X-46990503Y2396507D01*
G37*
G04 #@! TD.AperFunction*
G04 #@! TD*
G04 #@! TA.AperFunction,Conductor*
G04 #@! TO.N,GND*
G36*
X-46990503Y1896507D02*
G01*
X-46986906Y1891422D01*
X-46977453Y1865217D01*
X-46946213Y1849431D01*
X-46938197Y1849328D01*
X-46866057Y1848394D01*
X-46866056Y1848395D01*
X-46866048Y1848394D01*
X-46852419Y1849235D01*
X-46843952Y1846324D01*
X-46840022Y1838277D01*
X-46840000Y1837557D01*
X-46840000Y1662444D01*
X-46843427Y1654171D01*
X-46851700Y1650744D01*
X-46852420Y1650766D01*
X-46866040Y1651606D01*
X-46910949Y1652844D01*
X-46927786Y1653308D01*
X-46927787Y1653308D01*
X-46927789Y1653308D01*
X-46972690Y1639023D01*
X-46985337Y1623342D01*
X-46987922Y1610405D01*
X-46992904Y1602964D01*
X-47000558Y1601056D01*
X-48287209Y1729635D01*
X-48374504Y1738359D01*
X-48382395Y1742591D01*
X-48384982Y1751163D01*
X-48380749Y1759055D01*
X-48374504Y1761642D01*
X-46999073Y1899094D01*
X-46990503Y1896507D01*
G37*
G04 #@! TD.AperFunction*
G04 #@! TD*
G04 #@! TA.AperFunction,Conductor*
G04 #@! TO.N,GND*
G36*
X-46652443Y1941510D02*
G01*
X-46646723Y1934620D01*
X-46646436Y1933500D01*
X-46609478Y1752339D01*
X-46609478Y1747661D01*
X-46646523Y1566077D01*
X-46651535Y1558656D01*
X-46660326Y1556952D01*
X-46661065Y1557128D01*
X-46742328Y1579285D01*
X-46743821Y1579803D01*
X-46807416Y1606796D01*
X-46871744Y1633108D01*
X-46928129Y1645388D01*
X-46995148Y1649350D01*
X-47003204Y1653260D01*
X-47006157Y1661030D01*
X-47006157Y1839479D01*
X-47002730Y1847752D01*
X-46995695Y1851113D01*
X-46990023Y1851717D01*
X-46886152Y1862767D01*
X-46807405Y1893209D01*
X-46781224Y1905140D01*
X-46779843Y1905665D01*
X-46661358Y1942338D01*
X-46652443Y1941510D01*
G37*
G04 #@! TD.AperFunction*
G04 #@! TD*
G04 #@! TA.AperFunction,Conductor*
G04 #@! TO.N,GND*
G36*
X-46990503Y896507D02*
G01*
X-46986906Y891422D01*
X-46977453Y865217D01*
X-46946213Y849431D01*
X-46938197Y849328D01*
X-46866057Y848394D01*
X-46866056Y848395D01*
X-46866048Y848394D01*
X-46852419Y849235D01*
X-46843952Y846324D01*
X-46840022Y838277D01*
X-46840000Y837557D01*
X-46840000Y662444D01*
X-46843427Y654171D01*
X-46851700Y650744D01*
X-46852420Y650766D01*
X-46866040Y651606D01*
X-46910949Y652844D01*
X-46927786Y653308D01*
X-46927787Y653308D01*
X-46927789Y653308D01*
X-46972690Y639023D01*
X-46985337Y623342D01*
X-46987922Y610405D01*
X-46992904Y602964D01*
X-47000558Y601056D01*
X-48287209Y729635D01*
X-48374504Y738359D01*
X-48382395Y742591D01*
X-48384982Y751163D01*
X-48380749Y759055D01*
X-48374504Y761642D01*
X-46999073Y899094D01*
X-46990503Y896507D01*
G37*
G04 #@! TD.AperFunction*
G04 #@! TD*
G04 #@! TA.AperFunction,Conductor*
G04 #@! TO.N,GND*
G36*
X-46652443Y941510D02*
G01*
X-46646723Y934620D01*
X-46646436Y933500D01*
X-46609478Y752339D01*
X-46609478Y747661D01*
X-46646523Y566077D01*
X-46651535Y558656D01*
X-46660326Y556952D01*
X-46661065Y557128D01*
X-46742328Y579285D01*
X-46743821Y579803D01*
X-46807416Y606796D01*
X-46871744Y633108D01*
X-46928129Y645388D01*
X-46995148Y649350D01*
X-47003204Y653260D01*
X-47006157Y661030D01*
X-47006157Y839479D01*
X-47002730Y847752D01*
X-46995695Y851113D01*
X-46990023Y851717D01*
X-46886152Y862767D01*
X-46807405Y893209D01*
X-46781224Y905140D01*
X-46779843Y905665D01*
X-46661358Y942338D01*
X-46652443Y941510D01*
G37*
G04 #@! TD.AperFunction*
G04 #@! TD*
M02*
