%TF.GenerationSoftware,KiCad,Pcbnew,9.0.1*%
%TF.CreationDate,2025-08-12T12:10:01+02:00*%
%TF.ProjectId,Flex debug cable,466c6578-2064-4656-9275-67206361626c,1.1.0*%
%TF.SameCoordinates,Original*%
%TF.FileFunction,Drillmap*%
%TF.FilePolarity,Positive*%
%FSLAX45Y45*%
G04 Gerber Fmt 4.5, Leading zero omitted, Abs format (unit mm)*
G04 Created by KiCad (PCBNEW 9.0.1) date 2025-08-12 12:10:01*
%MOMM*%
%LPD*%
G01*
G04 APERTURE LIST*
%ADD10C,0.050000*%
%ADD11C,0.200000*%
%ADD12C,0.100000*%
G04 APERTURE END LIST*
D10*
X5000000Y-245000D02*
G75*
G02*
X4970000Y-274994I-29997J3D01*
G01*
X-4970000Y-275000D02*
G75*
G02*
X-5000000Y-245000I3J30003D01*
G01*
X-5000000Y-245000D02*
X-5000000Y245000D01*
X-5000000Y245000D02*
G75*
G02*
X-4970000Y275006I30003J3D01*
G01*
X-4969402Y275000D02*
X4970000Y275000D01*
X4970000Y275000D02*
G75*
G02*
X5000000Y245000I3J-29997D01*
G01*
X5000000Y245000D02*
X5000000Y-244997D01*
X-4970000Y-275000D02*
X4970000Y-275000D01*
D11*
D12*
X-4668500Y182500D02*
X-4653500Y167500D01*
X-4653500Y182500D02*
X-4668500Y167500D01*
X-4668500Y82500D02*
X-4653500Y67500D01*
X-4653500Y82500D02*
X-4668500Y67500D01*
X4478500Y82500D02*
X4493500Y67500D01*
X4493500Y82500D02*
X4478500Y67500D01*
X4536500Y-67500D02*
X4551500Y-82500D01*
X4551500Y-67500D02*
X4536500Y-82500D01*
X4586500Y-117500D02*
X4601500Y-132500D01*
X4601500Y-117500D02*
X4586500Y-132500D01*
X4636500Y-67500D02*
X4651500Y-82500D01*
X4651500Y-67500D02*
X4636500Y-82500D01*
X4679500Y-117500D02*
X4694500Y-132500D01*
X4694500Y-117500D02*
X4679500Y-132500D01*
X4752500Y232500D02*
X4767500Y217500D01*
X4767500Y232500D02*
X4752500Y217500D01*
X4948500Y-10000D02*
X4963500Y-25000D01*
X4963500Y-10000D02*
X4948500Y-25000D01*
X4950500Y59500D02*
X4965500Y44500D01*
X4965500Y59500D02*
X4950500Y44500D01*
X4955500Y-83500D02*
X4970500Y-98500D01*
X4970500Y-83500D02*
X4955500Y-98500D01*
D11*
X-4741723Y-588984D02*
X-4741723Y-388984D01*
X-4741723Y-388984D02*
X-4694104Y-388984D01*
X-4694104Y-388984D02*
X-4665533Y-398508D01*
X-4665533Y-398508D02*
X-4646485Y-417555D01*
X-4646485Y-417555D02*
X-4636961Y-436603D01*
X-4636961Y-436603D02*
X-4627438Y-474698D01*
X-4627438Y-474698D02*
X-4627438Y-503269D01*
X-4627438Y-503269D02*
X-4636961Y-541365D01*
X-4636961Y-541365D02*
X-4646485Y-560412D01*
X-4646485Y-560412D02*
X-4665533Y-579460D01*
X-4665533Y-579460D02*
X-4694104Y-588984D01*
X-4694104Y-588984D02*
X-4741723Y-588984D01*
X-4541723Y-588984D02*
X-4541723Y-455650D01*
X-4541723Y-493746D02*
X-4532199Y-474698D01*
X-4532199Y-474698D02*
X-4522676Y-465174D01*
X-4522676Y-465174D02*
X-4503628Y-455650D01*
X-4503628Y-455650D02*
X-4484580Y-455650D01*
X-4417914Y-588984D02*
X-4417914Y-455650D01*
X-4417914Y-388984D02*
X-4427438Y-398508D01*
X-4427438Y-398508D02*
X-4417914Y-408031D01*
X-4417914Y-408031D02*
X-4408390Y-398508D01*
X-4408390Y-398508D02*
X-4417914Y-388984D01*
X-4417914Y-388984D02*
X-4417914Y-408031D01*
X-4294104Y-588984D02*
X-4313152Y-579460D01*
X-4313152Y-579460D02*
X-4322676Y-560412D01*
X-4322676Y-560412D02*
X-4322676Y-388984D01*
X-4189342Y-588984D02*
X-4208390Y-579460D01*
X-4208390Y-579460D02*
X-4217914Y-560412D01*
X-4217914Y-560412D02*
X-4217914Y-388984D01*
X-3960771Y-588984D02*
X-3960771Y-388984D01*
X-3960771Y-388984D02*
X-3894104Y-531841D01*
X-3894104Y-531841D02*
X-3827437Y-388984D01*
X-3827437Y-388984D02*
X-3827437Y-588984D01*
X-3646485Y-588984D02*
X-3646485Y-484222D01*
X-3646485Y-484222D02*
X-3656009Y-465174D01*
X-3656009Y-465174D02*
X-3675056Y-455650D01*
X-3675056Y-455650D02*
X-3713152Y-455650D01*
X-3713152Y-455650D02*
X-3732199Y-465174D01*
X-3646485Y-579460D02*
X-3665533Y-588984D01*
X-3665533Y-588984D02*
X-3713152Y-588984D01*
X-3713152Y-588984D02*
X-3732199Y-579460D01*
X-3732199Y-579460D02*
X-3741723Y-560412D01*
X-3741723Y-560412D02*
X-3741723Y-541365D01*
X-3741723Y-541365D02*
X-3732199Y-522317D01*
X-3732199Y-522317D02*
X-3713152Y-512793D01*
X-3713152Y-512793D02*
X-3665533Y-512793D01*
X-3665533Y-512793D02*
X-3646485Y-503269D01*
X-3551247Y-455650D02*
X-3551247Y-655650D01*
X-3551247Y-465174D02*
X-3532199Y-455650D01*
X-3532199Y-455650D02*
X-3494104Y-455650D01*
X-3494104Y-455650D02*
X-3475056Y-465174D01*
X-3475056Y-465174D02*
X-3465533Y-474698D01*
X-3465533Y-474698D02*
X-3456009Y-493746D01*
X-3456009Y-493746D02*
X-3456009Y-550889D01*
X-3456009Y-550889D02*
X-3465533Y-569936D01*
X-3465533Y-569936D02*
X-3475056Y-579460D01*
X-3475056Y-579460D02*
X-3494104Y-588984D01*
X-3494104Y-588984D02*
X-3532199Y-588984D01*
X-3532199Y-588984D02*
X-3551247Y-579460D01*
X-3370295Y-569936D02*
X-3360771Y-579460D01*
X-3360771Y-579460D02*
X-3370295Y-588984D01*
X-3370295Y-588984D02*
X-3379818Y-579460D01*
X-3379818Y-579460D02*
X-3370295Y-569936D01*
X-3370295Y-569936D02*
X-3370295Y-588984D01*
X-3370295Y-465174D02*
X-3360771Y-474698D01*
X-3360771Y-474698D02*
X-3370295Y-484222D01*
X-3370295Y-484222D02*
X-3379818Y-474698D01*
X-3379818Y-474698D02*
X-3370295Y-465174D01*
X-3370295Y-465174D02*
X-3370295Y-484222D01*
D12*
X-5017500Y-910000D02*
X-5002500Y-925000D01*
X-5002500Y-910000D02*
X-5017500Y-925000D01*
D11*
X-4703628Y-808984D02*
X-4684580Y-808984D01*
X-4684580Y-808984D02*
X-4665533Y-818508D01*
X-4665533Y-818508D02*
X-4656009Y-828031D01*
X-4656009Y-828031D02*
X-4646485Y-847079D01*
X-4646485Y-847079D02*
X-4636961Y-885174D01*
X-4636961Y-885174D02*
X-4636961Y-932793D01*
X-4636961Y-932793D02*
X-4646485Y-970888D01*
X-4646485Y-970888D02*
X-4656009Y-989936D01*
X-4656009Y-989936D02*
X-4665533Y-999460D01*
X-4665533Y-999460D02*
X-4684580Y-1008984D01*
X-4684580Y-1008984D02*
X-4703628Y-1008984D01*
X-4703628Y-1008984D02*
X-4722676Y-999460D01*
X-4722676Y-999460D02*
X-4732199Y-989936D01*
X-4732199Y-989936D02*
X-4741723Y-970888D01*
X-4741723Y-970888D02*
X-4751247Y-932793D01*
X-4751247Y-932793D02*
X-4751247Y-885174D01*
X-4751247Y-885174D02*
X-4741723Y-847079D01*
X-4741723Y-847079D02*
X-4732199Y-828031D01*
X-4732199Y-828031D02*
X-4722676Y-818508D01*
X-4722676Y-818508D02*
X-4703628Y-808984D01*
X-4551247Y-989936D02*
X-4541723Y-999460D01*
X-4541723Y-999460D02*
X-4551247Y-1008984D01*
X-4551247Y-1008984D02*
X-4560771Y-999460D01*
X-4560771Y-999460D02*
X-4551247Y-989936D01*
X-4551247Y-989936D02*
X-4551247Y-1008984D01*
X-4351247Y-1008984D02*
X-4465533Y-1008984D01*
X-4408390Y-1008984D02*
X-4408390Y-808984D01*
X-4408390Y-808984D02*
X-4427438Y-837555D01*
X-4427438Y-837555D02*
X-4446485Y-856603D01*
X-4446485Y-856603D02*
X-4465533Y-866127D01*
X-4170295Y-808984D02*
X-4265533Y-808984D01*
X-4265533Y-808984D02*
X-4275057Y-904222D01*
X-4275057Y-904222D02*
X-4265533Y-894698D01*
X-4265533Y-894698D02*
X-4246485Y-885174D01*
X-4246485Y-885174D02*
X-4198866Y-885174D01*
X-4198866Y-885174D02*
X-4179818Y-894698D01*
X-4179818Y-894698D02*
X-4170295Y-904222D01*
X-4170295Y-904222D02*
X-4160771Y-923269D01*
X-4160771Y-923269D02*
X-4160771Y-970888D01*
X-4160771Y-970888D02*
X-4170295Y-989936D01*
X-4170295Y-989936D02*
X-4179818Y-999460D01*
X-4179818Y-999460D02*
X-4198866Y-1008984D01*
X-4198866Y-1008984D02*
X-4246485Y-1008984D01*
X-4246485Y-1008984D02*
X-4265533Y-999460D01*
X-4265533Y-999460D02*
X-4275057Y-989936D01*
X-4036961Y-808984D02*
X-4017914Y-808984D01*
X-4017914Y-808984D02*
X-3998866Y-818508D01*
X-3998866Y-818508D02*
X-3989342Y-828031D01*
X-3989342Y-828031D02*
X-3979818Y-847079D01*
X-3979818Y-847079D02*
X-3970295Y-885174D01*
X-3970295Y-885174D02*
X-3970295Y-932793D01*
X-3970295Y-932793D02*
X-3979818Y-970888D01*
X-3979818Y-970888D02*
X-3989342Y-989936D01*
X-3989342Y-989936D02*
X-3998866Y-999460D01*
X-3998866Y-999460D02*
X-4017914Y-1008984D01*
X-4017914Y-1008984D02*
X-4036961Y-1008984D01*
X-4036961Y-1008984D02*
X-4056009Y-999460D01*
X-4056009Y-999460D02*
X-4065533Y-989936D01*
X-4065533Y-989936D02*
X-4075056Y-970888D01*
X-4075056Y-970888D02*
X-4084580Y-932793D01*
X-4084580Y-932793D02*
X-4084580Y-885174D01*
X-4084580Y-885174D02*
X-4075056Y-847079D01*
X-4075056Y-847079D02*
X-4065533Y-828031D01*
X-4065533Y-828031D02*
X-4056009Y-818508D01*
X-4056009Y-818508D02*
X-4036961Y-808984D01*
X-3884580Y-1008984D02*
X-3884580Y-875650D01*
X-3884580Y-894698D02*
X-3875056Y-885174D01*
X-3875056Y-885174D02*
X-3856009Y-875650D01*
X-3856009Y-875650D02*
X-3827437Y-875650D01*
X-3827437Y-875650D02*
X-3808390Y-885174D01*
X-3808390Y-885174D02*
X-3798866Y-904222D01*
X-3798866Y-904222D02*
X-3798866Y-1008984D01*
X-3798866Y-904222D02*
X-3789342Y-885174D01*
X-3789342Y-885174D02*
X-3770295Y-875650D01*
X-3770295Y-875650D02*
X-3741723Y-875650D01*
X-3741723Y-875650D02*
X-3722675Y-885174D01*
X-3722675Y-885174D02*
X-3713152Y-904222D01*
X-3713152Y-904222D02*
X-3713152Y-1008984D01*
X-3617914Y-1008984D02*
X-3617914Y-875650D01*
X-3617914Y-894698D02*
X-3608390Y-885174D01*
X-3608390Y-885174D02*
X-3589342Y-875650D01*
X-3589342Y-875650D02*
X-3560771Y-875650D01*
X-3560771Y-875650D02*
X-3541723Y-885174D01*
X-3541723Y-885174D02*
X-3532199Y-904222D01*
X-3532199Y-904222D02*
X-3532199Y-1008984D01*
X-3532199Y-904222D02*
X-3522675Y-885174D01*
X-3522675Y-885174D02*
X-3503628Y-875650D01*
X-3503628Y-875650D02*
X-3475056Y-875650D01*
X-3475056Y-875650D02*
X-3456009Y-885174D01*
X-3456009Y-885174D02*
X-3446485Y-904222D01*
X-3446485Y-904222D02*
X-3446485Y-1008984D01*
X-3056009Y-799460D02*
X-3227437Y-1056603D01*
X-2798866Y-808984D02*
X-2779818Y-808984D01*
X-2779818Y-808984D02*
X-2760771Y-818508D01*
X-2760771Y-818508D02*
X-2751247Y-828031D01*
X-2751247Y-828031D02*
X-2741723Y-847079D01*
X-2741723Y-847079D02*
X-2732199Y-885174D01*
X-2732199Y-885174D02*
X-2732199Y-932793D01*
X-2732199Y-932793D02*
X-2741723Y-970888D01*
X-2741723Y-970888D02*
X-2751247Y-989936D01*
X-2751247Y-989936D02*
X-2760771Y-999460D01*
X-2760771Y-999460D02*
X-2779818Y-1008984D01*
X-2779818Y-1008984D02*
X-2798866Y-1008984D01*
X-2798866Y-1008984D02*
X-2817913Y-999460D01*
X-2817913Y-999460D02*
X-2827437Y-989936D01*
X-2827437Y-989936D02*
X-2836961Y-970888D01*
X-2836961Y-970888D02*
X-2846485Y-932793D01*
X-2846485Y-932793D02*
X-2846485Y-885174D01*
X-2846485Y-885174D02*
X-2836961Y-847079D01*
X-2836961Y-847079D02*
X-2827437Y-828031D01*
X-2827437Y-828031D02*
X-2817913Y-818508D01*
X-2817913Y-818508D02*
X-2798866Y-808984D01*
X-2646485Y-989936D02*
X-2636961Y-999460D01*
X-2636961Y-999460D02*
X-2646485Y-1008984D01*
X-2646485Y-1008984D02*
X-2656009Y-999460D01*
X-2656009Y-999460D02*
X-2646485Y-989936D01*
X-2646485Y-989936D02*
X-2646485Y-1008984D01*
X-2513152Y-808984D02*
X-2494104Y-808984D01*
X-2494104Y-808984D02*
X-2475056Y-818508D01*
X-2475056Y-818508D02*
X-2465533Y-828031D01*
X-2465533Y-828031D02*
X-2456009Y-847079D01*
X-2456009Y-847079D02*
X-2446485Y-885174D01*
X-2446485Y-885174D02*
X-2446485Y-932793D01*
X-2446485Y-932793D02*
X-2456009Y-970888D01*
X-2456009Y-970888D02*
X-2465533Y-989936D01*
X-2465533Y-989936D02*
X-2475056Y-999460D01*
X-2475056Y-999460D02*
X-2494104Y-1008984D01*
X-2494104Y-1008984D02*
X-2513152Y-1008984D01*
X-2513152Y-1008984D02*
X-2532199Y-999460D01*
X-2532199Y-999460D02*
X-2541723Y-989936D01*
X-2541723Y-989936D02*
X-2551247Y-970888D01*
X-2551247Y-970888D02*
X-2560771Y-932793D01*
X-2560771Y-932793D02*
X-2560771Y-885174D01*
X-2560771Y-885174D02*
X-2551247Y-847079D01*
X-2551247Y-847079D02*
X-2541723Y-828031D01*
X-2541723Y-828031D02*
X-2532199Y-818508D01*
X-2532199Y-818508D02*
X-2513152Y-808984D01*
X-2322675Y-808984D02*
X-2303628Y-808984D01*
X-2303628Y-808984D02*
X-2284580Y-818508D01*
X-2284580Y-818508D02*
X-2275056Y-828031D01*
X-2275056Y-828031D02*
X-2265533Y-847079D01*
X-2265533Y-847079D02*
X-2256009Y-885174D01*
X-2256009Y-885174D02*
X-2256009Y-932793D01*
X-2256009Y-932793D02*
X-2265533Y-970888D01*
X-2265533Y-970888D02*
X-2275056Y-989936D01*
X-2275056Y-989936D02*
X-2284580Y-999460D01*
X-2284580Y-999460D02*
X-2303628Y-1008984D01*
X-2303628Y-1008984D02*
X-2322675Y-1008984D01*
X-2322675Y-1008984D02*
X-2341723Y-999460D01*
X-2341723Y-999460D02*
X-2351247Y-989936D01*
X-2351247Y-989936D02*
X-2360771Y-970888D01*
X-2360771Y-970888D02*
X-2370294Y-932793D01*
X-2370294Y-932793D02*
X-2370294Y-885174D01*
X-2370294Y-885174D02*
X-2360771Y-847079D01*
X-2360771Y-847079D02*
X-2351247Y-828031D01*
X-2351247Y-828031D02*
X-2341723Y-818508D01*
X-2341723Y-818508D02*
X-2322675Y-808984D01*
X-2075056Y-808984D02*
X-2170294Y-808984D01*
X-2170294Y-808984D02*
X-2179818Y-904222D01*
X-2179818Y-904222D02*
X-2170294Y-894698D01*
X-2170294Y-894698D02*
X-2151247Y-885174D01*
X-2151247Y-885174D02*
X-2103628Y-885174D01*
X-2103628Y-885174D02*
X-2084580Y-894698D01*
X-2084580Y-894698D02*
X-2075056Y-904222D01*
X-2075056Y-904222D02*
X-2065532Y-923269D01*
X-2065532Y-923269D02*
X-2065532Y-970888D01*
X-2065532Y-970888D02*
X-2075056Y-989936D01*
X-2075056Y-989936D02*
X-2084580Y-999460D01*
X-2084580Y-999460D02*
X-2103628Y-1008984D01*
X-2103628Y-1008984D02*
X-2151247Y-1008984D01*
X-2151247Y-1008984D02*
X-2170294Y-999460D01*
X-2170294Y-999460D02*
X-2179818Y-989936D01*
X-1970294Y-1008984D02*
X-1932199Y-1008984D01*
X-1932199Y-1008984D02*
X-1913151Y-999460D01*
X-1913151Y-999460D02*
X-1903628Y-989936D01*
X-1903628Y-989936D02*
X-1884580Y-961365D01*
X-1884580Y-961365D02*
X-1875056Y-923269D01*
X-1875056Y-923269D02*
X-1875056Y-847079D01*
X-1875056Y-847079D02*
X-1884580Y-828031D01*
X-1884580Y-828031D02*
X-1894104Y-818508D01*
X-1894104Y-818508D02*
X-1913151Y-808984D01*
X-1913151Y-808984D02*
X-1951247Y-808984D01*
X-1951247Y-808984D02*
X-1970294Y-818508D01*
X-1970294Y-818508D02*
X-1979818Y-828031D01*
X-1979818Y-828031D02*
X-1989342Y-847079D01*
X-1989342Y-847079D02*
X-1989342Y-894698D01*
X-1989342Y-894698D02*
X-1979818Y-913746D01*
X-1979818Y-913746D02*
X-1970294Y-923269D01*
X-1970294Y-923269D02*
X-1951247Y-932793D01*
X-1951247Y-932793D02*
X-1913151Y-932793D01*
X-1913151Y-932793D02*
X-1894104Y-923269D01*
X-1894104Y-923269D02*
X-1884580Y-913746D01*
X-1884580Y-913746D02*
X-1875056Y-894698D01*
X-1798866Y-808984D02*
X-1798866Y-847079D01*
X-1722675Y-808984D02*
X-1722675Y-847079D01*
X-1427437Y-1085174D02*
X-1436961Y-1075650D01*
X-1436961Y-1075650D02*
X-1456009Y-1047079D01*
X-1456009Y-1047079D02*
X-1465532Y-1028031D01*
X-1465532Y-1028031D02*
X-1475056Y-999460D01*
X-1475056Y-999460D02*
X-1484580Y-951841D01*
X-1484580Y-951841D02*
X-1484580Y-913746D01*
X-1484580Y-913746D02*
X-1475056Y-866127D01*
X-1475056Y-866127D02*
X-1465532Y-837555D01*
X-1465532Y-837555D02*
X-1456009Y-818508D01*
X-1456009Y-818508D02*
X-1436961Y-789936D01*
X-1436961Y-789936D02*
X-1427437Y-780412D01*
X-1246485Y-1008984D02*
X-1360771Y-1008984D01*
X-1303628Y-1008984D02*
X-1303628Y-808984D01*
X-1303628Y-808984D02*
X-1322675Y-837555D01*
X-1322675Y-837555D02*
X-1341723Y-856603D01*
X-1341723Y-856603D02*
X-1360771Y-866127D01*
X-1056009Y-1008984D02*
X-1170294Y-1008984D01*
X-1113152Y-1008984D02*
X-1113152Y-808984D01*
X-1113152Y-808984D02*
X-1132199Y-837555D01*
X-1132199Y-837555D02*
X-1151247Y-856603D01*
X-1151247Y-856603D02*
X-1170294Y-866127D01*
X-817913Y-1008984D02*
X-817913Y-808984D01*
X-732199Y-1008984D02*
X-732199Y-904222D01*
X-732199Y-904222D02*
X-741723Y-885174D01*
X-741723Y-885174D02*
X-760770Y-875650D01*
X-760770Y-875650D02*
X-789342Y-875650D01*
X-789342Y-875650D02*
X-808389Y-885174D01*
X-808389Y-885174D02*
X-817913Y-894698D01*
X-608390Y-1008984D02*
X-627437Y-999460D01*
X-627437Y-999460D02*
X-636961Y-989936D01*
X-636961Y-989936D02*
X-646485Y-970888D01*
X-646485Y-970888D02*
X-646485Y-913746D01*
X-646485Y-913746D02*
X-636961Y-894698D01*
X-636961Y-894698D02*
X-627437Y-885174D01*
X-627437Y-885174D02*
X-608390Y-875650D01*
X-608390Y-875650D02*
X-579818Y-875650D01*
X-579818Y-875650D02*
X-560770Y-885174D01*
X-560770Y-885174D02*
X-551247Y-894698D01*
X-551247Y-894698D02*
X-541723Y-913746D01*
X-541723Y-913746D02*
X-541723Y-970888D01*
X-541723Y-970888D02*
X-551247Y-989936D01*
X-551247Y-989936D02*
X-560770Y-999460D01*
X-560770Y-999460D02*
X-579818Y-1008984D01*
X-579818Y-1008984D02*
X-608390Y-1008984D01*
X-427437Y-1008984D02*
X-446485Y-999460D01*
X-446485Y-999460D02*
X-456008Y-980412D01*
X-456008Y-980412D02*
X-456008Y-808984D01*
X-275056Y-999460D02*
X-294104Y-1008984D01*
X-294104Y-1008984D02*
X-332199Y-1008984D01*
X-332199Y-1008984D02*
X-351247Y-999460D01*
X-351247Y-999460D02*
X-360770Y-980412D01*
X-360770Y-980412D02*
X-360770Y-904222D01*
X-360770Y-904222D02*
X-351247Y-885174D01*
X-351247Y-885174D02*
X-332199Y-875650D01*
X-332199Y-875650D02*
X-294104Y-875650D01*
X-294104Y-875650D02*
X-275056Y-885174D01*
X-275056Y-885174D02*
X-265532Y-904222D01*
X-265532Y-904222D02*
X-265532Y-923269D01*
X-265532Y-923269D02*
X-360770Y-942317D01*
X-189342Y-999460D02*
X-170294Y-1008984D01*
X-170294Y-1008984D02*
X-132199Y-1008984D01*
X-132199Y-1008984D02*
X-113151Y-999460D01*
X-113151Y-999460D02*
X-103627Y-980412D01*
X-103627Y-980412D02*
X-103627Y-970888D01*
X-103627Y-970888D02*
X-113151Y-951841D01*
X-113151Y-951841D02*
X-132199Y-942317D01*
X-132199Y-942317D02*
X-160770Y-942317D01*
X-160770Y-942317D02*
X-179818Y-932793D01*
X-179818Y-932793D02*
X-189342Y-913746D01*
X-189342Y-913746D02*
X-189342Y-904222D01*
X-189342Y-904222D02*
X-179818Y-885174D01*
X-179818Y-885174D02*
X-160770Y-875650D01*
X-160770Y-875650D02*
X-132199Y-875650D01*
X-132199Y-875650D02*
X-113151Y-885174D01*
X-36961Y-1085174D02*
X-27437Y-1075650D01*
X-27437Y-1075650D02*
X-8389Y-1047079D01*
X-8389Y-1047079D02*
X1134Y-1028031D01*
X1134Y-1028031D02*
X10658Y-999460D01*
X10658Y-999460D02*
X20182Y-951841D01*
X20182Y-951841D02*
X20182Y-913746D01*
X20182Y-913746D02*
X10658Y-866127D01*
X10658Y-866127D02*
X1134Y-837555D01*
X1134Y-837555D02*
X-8389Y-818508D01*
X-8389Y-818508D02*
X-27437Y-789936D01*
X-27437Y-789936D02*
X-36961Y-780412D01*
M02*
