%TF.GenerationSoftware,KiCad,Pcbnew,9.0.1*%
%TF.CreationDate,2025-08-12T12:10:01+02:00*%
%TF.ProjectId,Flex debug cable,466c6578-2064-4656-9275-67206361626c,1.1.0*%
%TF.SameCoordinates,Original*%
%TF.FileFunction,Drillmap*%
%TF.FilePolarity,Positive*%
%FSLAX45Y45*%
G04 Gerber Fmt 4.5, Leading zero omitted, Abs format (unit mm)*
G04 Created by KiCad (PCBNEW 9.0.1) date 2025-08-12 12:10:01*
%MOMM*%
%LPD*%
G01*
G04 APERTURE LIST*
%ADD10C,0.050000*%
%ADD11C,0.200000*%
G04 APERTURE END LIST*
D10*
X5000000Y-245000D02*
G75*
G02*
X4970000Y-274994I-29997J3D01*
G01*
X-4970000Y-275000D02*
G75*
G02*
X-5000000Y-245000I3J30003D01*
G01*
X-5000000Y-245000D02*
X-5000000Y245000D01*
X-5000000Y245000D02*
G75*
G02*
X-4970000Y275006I30003J3D01*
G01*
X-4969402Y275000D02*
X4970000Y275000D01*
X4970000Y275000D02*
G75*
G02*
X5000000Y245000I3J-29997D01*
G01*
X5000000Y245000D02*
X5000000Y-244997D01*
X-4970000Y-275000D02*
X4970000Y-275000D01*
D11*
X-4741723Y-588984D02*
X-4741723Y-388984D01*
X-4741723Y-388984D02*
X-4694104Y-388984D01*
X-4694104Y-388984D02*
X-4665533Y-398508D01*
X-4665533Y-398508D02*
X-4646485Y-417555D01*
X-4646485Y-417555D02*
X-4636961Y-436603D01*
X-4636961Y-436603D02*
X-4627438Y-474698D01*
X-4627438Y-474698D02*
X-4627438Y-503269D01*
X-4627438Y-503269D02*
X-4636961Y-541365D01*
X-4636961Y-541365D02*
X-4646485Y-560412D01*
X-4646485Y-560412D02*
X-4665533Y-579460D01*
X-4665533Y-579460D02*
X-4694104Y-588984D01*
X-4694104Y-588984D02*
X-4741723Y-588984D01*
X-4541723Y-588984D02*
X-4541723Y-455650D01*
X-4541723Y-493746D02*
X-4532199Y-474698D01*
X-4532199Y-474698D02*
X-4522676Y-465174D01*
X-4522676Y-465174D02*
X-4503628Y-455650D01*
X-4503628Y-455650D02*
X-4484580Y-455650D01*
X-4417914Y-588984D02*
X-4417914Y-455650D01*
X-4417914Y-388984D02*
X-4427438Y-398508D01*
X-4427438Y-398508D02*
X-4417914Y-408031D01*
X-4417914Y-408031D02*
X-4408390Y-398508D01*
X-4408390Y-398508D02*
X-4417914Y-388984D01*
X-4417914Y-388984D02*
X-4417914Y-408031D01*
X-4294104Y-588984D02*
X-4313152Y-579460D01*
X-4313152Y-579460D02*
X-4322676Y-560412D01*
X-4322676Y-560412D02*
X-4322676Y-388984D01*
X-4189342Y-588984D02*
X-4208390Y-579460D01*
X-4208390Y-579460D02*
X-4217914Y-560412D01*
X-4217914Y-560412D02*
X-4217914Y-388984D01*
X-3960771Y-588984D02*
X-3960771Y-388984D01*
X-3960771Y-388984D02*
X-3894104Y-531841D01*
X-3894104Y-531841D02*
X-3827437Y-388984D01*
X-3827437Y-388984D02*
X-3827437Y-588984D01*
X-3646485Y-588984D02*
X-3646485Y-484222D01*
X-3646485Y-484222D02*
X-3656009Y-465174D01*
X-3656009Y-465174D02*
X-3675056Y-455650D01*
X-3675056Y-455650D02*
X-3713152Y-455650D01*
X-3713152Y-455650D02*
X-3732199Y-465174D01*
X-3646485Y-579460D02*
X-3665533Y-588984D01*
X-3665533Y-588984D02*
X-3713152Y-588984D01*
X-3713152Y-588984D02*
X-3732199Y-579460D01*
X-3732199Y-579460D02*
X-3741723Y-560412D01*
X-3741723Y-560412D02*
X-3741723Y-541365D01*
X-3741723Y-541365D02*
X-3732199Y-522317D01*
X-3732199Y-522317D02*
X-3713152Y-512793D01*
X-3713152Y-512793D02*
X-3665533Y-512793D01*
X-3665533Y-512793D02*
X-3646485Y-503269D01*
X-3551247Y-455650D02*
X-3551247Y-655650D01*
X-3551247Y-465174D02*
X-3532199Y-455650D01*
X-3532199Y-455650D02*
X-3494104Y-455650D01*
X-3494104Y-455650D02*
X-3475056Y-465174D01*
X-3475056Y-465174D02*
X-3465533Y-474698D01*
X-3465533Y-474698D02*
X-3456009Y-493746D01*
X-3456009Y-493746D02*
X-3456009Y-550889D01*
X-3456009Y-550889D02*
X-3465533Y-569936D01*
X-3465533Y-569936D02*
X-3475056Y-579460D01*
X-3475056Y-579460D02*
X-3494104Y-588984D01*
X-3494104Y-588984D02*
X-3532199Y-588984D01*
X-3532199Y-588984D02*
X-3551247Y-579460D01*
X-3370295Y-569936D02*
X-3360771Y-579460D01*
X-3360771Y-579460D02*
X-3370295Y-588984D01*
X-3370295Y-588984D02*
X-3379818Y-579460D01*
X-3379818Y-579460D02*
X-3370295Y-569936D01*
X-3370295Y-569936D02*
X-3370295Y-588984D01*
X-3370295Y-465174D02*
X-3360771Y-474698D01*
X-3360771Y-474698D02*
X-3370295Y-484222D01*
X-3370295Y-484222D02*
X-3379818Y-474698D01*
X-3379818Y-474698D02*
X-3370295Y-465174D01*
X-3370295Y-465174D02*
X-3370295Y-484222D01*
M02*
